<?xml version="1.0" standalone="no"?>
<!DOCTYPE svg PUBLIC "-//W3C//DTD SVG 20010904//EN"
 "http://www.w3.org/TR/2001/REC-SVG-20010904/DTD/svg10.dtd">
<svg version="1.0" xmlns="http://www.w3.org/2000/svg"
 width="573.000000pt" height="632.000000pt" viewBox="0 0 573.000000 632.000000"
 preserveAspectRatio="xMidYMid meet">

<g transform="translate(0.000000,632.000000) scale(0.100000,-0.100000)"
fill="#000000" stroke="none">
<path d="M2874 6132 c-6 -4 -15 -20 -21 -36 -7 -23 -19 -33 -51 -44 -28 -9
-42 -19 -42 -31 0 -17 37 -41 64 -41 7 0 20 -18 29 -40 21 -54 49 -54 71 -1
13 33 21 41 50 47 67 12 70 55 6 67 -20 5 -37 19 -55 47 -26 41 -32 45 -51 32z"/>
<path d="M4590 5701 c-5 -11 -10 -27 -10 -36 0 -27 -38 -91 -70 -119 -18 -14
-50 -29 -71 -32 -43 -7 -72 -29 -66 -48 5 -14 43 -33 82 -41 38 -8 112 -82
120 -120 9 -45 20 -60 43 -63 16 -3 23 3 28 25 20 91 62 146 122 159 59 13 77
21 80 38 5 24 -16 46 -45 46 -69 0 -138 67 -150 146 -9 63 -41 85 -63 45z"/>
<path d="M2755 5644 c-285 -29 -462 -73 -698 -171 -74 -31 -104 -48 -95 -54 7
-5 18 -9 23 -9 6 0 3 5 -5 10 -13 8 -13 10 1 10 12 0 16 -8 15 -25 -1 -22 -16
-38 -16 -17 0 5 -11 14 -25 20 -21 10 -32 9 -55 -3 -17 -9 -30 -18 -30 -21 0
-2 13 2 29 10 27 14 30 14 62 -11 19 -14 26 -23 16 -19 -10 3 -28 6 -40 6 -18
0 -19 2 -7 11 11 8 8 9 -15 4 -16 -3 -38 -6 -47 -6 -14 0 -18 -9 -18 -39 0
-47 -21 -58 -63 -31 l-30 19 -48 -31 c-27 -16 -49 -34 -49 -39 0 -5 -4 -7 -8
-4 -11 7 -144 -93 -137 -104 3 -5 0 -12 -6 -16 -8 -5 -9 -3 -4 6 5 8 3 11 -6
8 -8 -3 -13 -11 -11 -17 1 -7 -2 -10 -7 -7 -12 8 -63 -33 -55 -45 3 -5 2 -8
-3 -7 -15 4 -54 -23 -47 -34 4 -6 3 -8 -3 -5 -12 8 -131 -114 -214 -218 -251
-316 -395 -631 -470 -1030 -27 -140 -37 -463 -20 -627 44 -417 217 -837 488
-1178 87 -110 277 -299 376 -374 305 -231 718 -398 1102 -446 135 -17 420 -15
550 5 120 18 324 68 450 111 189 63 441 201 614 335 469 361 765 873 858 1479
25 160 24 483 -1 635 -104 641 -457 1202 -972 1544 -297 197 -570 299 -957
356 -108 16 -348 27 -422 19z m-605 -180 c0 -2 -8 0 -18 5 -11 6 -24 6 -33 0
-7 -5 -21 -9 -29 -8 -8 0 -1 6 15 13 27 12 65 6 65 -10z m885 -89 c159 -11
365 -58 528 -120 109 -41 299 -140 407 -213 122 -81 305 -243 403 -357 152
-176 294 -425 367 -642 100 -300 124 -641 71 -983 -64 -403 -253 -763 -565
-1075 -240 -240 -530 -403 -887 -499 -280 -75 -661 -76 -936 -1 -238 65 -429
152 -627 286 -424 285 -722 740 -823 1254 -25 130 -27 158 -27 405 -1 251 1
271 26 391 109 503 404 931 848 1228 203 136 334 198 549 260 247 71 392 85
666 66z m-1272 -82 c-3 -7 -6 -13 -8 -13 -2 0 -5 6 -8 13 -3 8 1 14 8 14 7 0
11 -6 8 -14z m-70 -30 c-22 -15 -34 -41 -13 -28 6 3 10 1 10 -4 0 -13 -17 -14
-24 -2 -9 14 4 39 22 44 28 8 28 7 5 -10z m64 1 c-3 -3 -12 -4 -19 -1 -8 3 -5
6 6 6 11 1 17 -2 13 -5z m-110 -36 c2 -17 0 -19 -7 -8 -5 8 -6 18 -4 22 8 12
10 10 11 -14z m-54 -30 c-4 -7 -8 -16 -8 -20 0 -5 -4 -8 -10 -9 -5 0 -15 -5
-21 -10 -7 -5 -11 -3 -11 6 0 8 3 12 7 10 4 -3 15 4 25 15 20 22 30 26 18 8z"/>
<path d="M2685 5114 c-87 -13 -237 -49 -310 -74 -108 -39 -186 -75 -178 -84 4
-4 0 -4 -10 0 -16 6 -22 -5 -18 -29 1 -5 -3 -6 -9 -2 -6 3 -8 11 -4 17 3 5 -8
2 -25 -7 -18 -9 -29 -21 -25 -27 4 -6 1 -9 -7 -6 -16 6 -54 -12 -124 -58 -88
-58 -96 -65 -90 -75 3 -5 0 -6 -8 -3 -8 3 -25 -8 -41 -26 -14 -17 -26 -28 -26
-24 0 4 -9 -1 -20 -11 -11 -10 -17 -22 -13 -28 3 -5 1 -7 -4 -4 -12 8 -176
-159 -246 -250 -241 -314 -367 -727 -337 -1113 37 -478 189 -809 525 -1145
137 -136 238 -212 389 -291 362 -189 787 -243 1176 -149 270 66 548 209 734
377 268 243 439 522 525 861 42 161 54 292 49 507 -4 156 -9 204 -32 305 -66
288 -181 517 -375 747 -240 286 -580 489 -946 568 -80 17 -142 22 -310 25
-115 2 -223 1 -240 -1z m319 -174 c59 -6 120 -17 135 -24 72 -38 85 -100 29
-151 -33 -30 -37 -32 -89 -24 -96 13 -322 10 -408 -6 -233 -45 -467 -161 -677
-338 -50 -41 -103 -79 -118 -83 -79 -19 -149 85 -101 153 17 25 188 160 290
231 162 112 437 213 656 241 93 12 160 12 283 1z m-949 -69 c3 -5 2 -12 -3
-15 -5 -3 -9 1 -9 9 0 17 3 19 12 6z m1783 -265 c15 -8 54 -43 88 -78 322
-334 469 -656 482 -1055 7 -231 -14 -364 -92 -591 -64 -187 -171 -362 -309
-508 -220 -233 -453 -368 -785 -455 -100 -27 -140 -32 -283 -36 -248 -8 -399
18 -620 107 -138 56 -204 92 -219 120 -30 57 9 130 71 130 17 0 72 -18 123
-41 344 -155 672 -178 994 -70 124 41 294 121 372 174 101 70 251 225 330 342
153 227 230 482 230 765 0 153 -19 269 -70 421 -75 226 -151 349 -329 532
-113 115 -125 132 -125 164 0 27 7 42 32 64 36 32 69 36 110 15z m-518 -187
c0 -40 1 -40 33 -37 l32 3 7 -67 c11 -97 42 -170 98 -231 63 -69 143 -110 227
-115 l63 -4 0 -219 0 -218 -52 15 c-69 20 -224 94 -282 133 -24 17 -49 31 -55
31 -6 0 -11 -131 -13 -367 l-3 -368 -26 -67 c-40 -104 -87 -173 -169 -251
-130 -124 -293 -184 -470 -174 -154 9 -256 54 -403 178 -193 163 -265 312
-254 524 8 161 71 292 190 401 108 97 303 174 444 174 l63 0 0 -45 c0 -43 1
-45 30 -45 l30 0 0 -190 0 -190 -27 7 c-81 23 -178 -3 -235 -64 -74 -78 -78
-225 -8 -288 18 -16 36 -20 99 -20 116 0 195 48 249 150 l27 50 3 668 3 667
199 0 200 0 0 -41z m-1649 -246 c34 -21 51 -62 39 -100 -4 -15 -26 -66 -48
-113 -79 -171 -112 -309 -112 -470 0 -126 -8 -153 -51 -175 -38 -20 -72 -13
-105 20 -23 23 -24 31 -24 137 0 135 14 257 40 353 28 103 117 309 147 339 30
31 72 34 114 9z m-6 -1395 c22 -10 166 -181 253 -300 65 -90 -20 -200 -109
-140 -15 9 -55 55 -89 102 -35 47 -82 108 -105 135 -67 80 -78 115 -54 169 19
40 60 54 104 34z"/>
<path d="M1077 5492 c-43 -47 1 -110 58 -84 33 15 35 64 3 86 -29 21 -41 20
-61 -2z"/>
<path d="M1807 5351 c-27 -18 -27 -18 -7 -36 11 -10 23 -15 27 -12 3 4 0 7 -8
7 -11 0 -11 2 -1 8 10 7 28 55 19 51 -1 0 -14 -8 -30 -18z"/>
<path d="M677 5153 c-4 -3 -7 -14 -7 -24 0 -27 -42 -70 -81 -83 -46 -15 -53
-52 -12 -61 53 -12 70 -23 90 -62 25 -48 52 -50 68 -4 13 40 48 71 80 71 27 0
40 26 24 46 -6 8 -21 14 -33 14 -35 0 -65 28 -76 70 -10 38 -34 53 -53 33z"/>
<path d="M5028 5073 c-23 -27 -28 -51 -19 -77 31 -80 131 -73 147 11 5 26 1
37 -19 57 -31 31 -86 35 -109 9z"/>
<path d="M317 4122 c-24 -27 -21 -58 9 -81 40 -32 84 -8 84 45 0 51 -59 74
-93 36z"/>
<path d="M5364 4046 c-10 -26 4 -48 28 -44 17 2 23 10 23 28 0 18 -6 26 -23
28 -13 2 -25 -3 -28 -12z"/>
<path d="M272 3678 c-19 -19 -14 -65 9 -82 50 -34 114 30 74 74 -20 22 -65 26
-83 8z"/>
<path d="M5415 3564 c-24 -25 -16 -75 16 -93 24 -13 29 -13 53 2 47 31 27 107
-29 107 -13 0 -31 -7 -40 -16z"/>
<path d="M270 3240 c-11 -11 -20 -29 -20 -40 0 -28 35 -60 64 -60 27 0 56 33
56 62 0 24 -35 58 -60 58 -11 0 -29 -9 -40 -20z"/>
<path d="M5416 3244 c-25 -24 -20 -71 9 -90 31 -20 53 -15 77 17 17 23 18 30
8 50 -7 13 -18 27 -24 31 -19 13 -54 9 -70 -8z"/>
<path d="M405 2699 c-6 -8 -4 -10 5 -4 8 5 11 3 8 -6 -3 -8 -13 -13 -23 -12
-12 1 -14 -2 -6 -10 8 -8 16 -7 28 6 12 12 14 20 6 28 -8 8 -13 7 -18 -2z"/>
<path d="M5345 2689 c-9 -29 16 -53 44 -44 17 5 21 13 19 33 -2 14 -9 28 -17
30 -8 3 -12 1 -9 -4 3 -5 -3 -17 -14 -26 -14 -14 -18 -15 -18 -4 0 8 5 16 12
18 9 3 9 6 1 11 -7 4 -14 -2 -18 -14z"/>
<path d="M663 1953 c-7 -2 -13 -9 -13 -14 0 -5 9 -4 20 3 15 10 22 10 32 0 17
-17 18 -39 2 -53 -15 -12 -49 -4 -40 10 3 5 -1 11 -9 15 -20 7 -19 -8 1 -28
32 -33 78 -11 69 34 -7 34 -30 46 -62 33z"/>
<path d="M5106 1902 c-12 -20 2 -47 26 -50 33 -4 46 33 18 48 -23 12 -37 13
-44 2z"/>
<path d="M951 1698 c-5 -13 -12 -37 -15 -54 -11 -50 -70 -112 -119 -125 -70
-18 -87 -28 -87 -47 0 -25 19 -42 49 -42 39 -1 105 -34 129 -65 12 -16 25 -45
28 -66 13 -78 57 -77 80 2 19 63 63 104 127 119 61 15 77 25 77 51 0 21 -25
34 -83 44 -48 8 -99 58 -116 116 -22 74 -30 89 -46 89 -9 0 -19 -10 -24 -22z"/>
<path d="M4773 1583 c-7 -2 -13 -18 -13 -33 0 -25 -5 -31 -39 -40 -70 -19 -77
-59 -13 -75 35 -9 52 -23 52 -45 0 -51 65 -48 78 3 7 26 15 34 45 41 20 5 38
15 41 23 9 23 -5 43 -30 43 -29 0 -64 33 -64 59 0 25 -27 37 -57 24z"/>
<path d="M4337 1299 c-49 -38 -23 -119 38 -119 54 0 87 78 48 112 -32 28 -58
30 -86 7z"/>
<path d="M1352 1288 c-29 -29 -1 -98 40 -98 22 0 48 33 48 61 0 32 -17 49 -50
49 -14 0 -31 -5 -38 -12z"/>
<path d="M856 714 c-14 -13 -16 -48 -16 -225 0 -196 1 -210 20 -229 49 -49 74
-15 80 108 l5 96 41 -65 c22 -35 51 -81 63 -102 38 -62 82 -71 102 -20 5 13 9
111 9 216 0 205 -7 237 -50 237 -41 0 -50 -25 -50 -138 l0 -107 -63 106 c-34
58 -68 114 -76 123 -17 20 -45 21 -65 0z"/>
<path d="M1290 710 c-19 -19 -20 -33 -20 -223 0 -253 -11 -237 156 -237 123 0
144 6 144 40 0 37 -33 50 -123 50 l-87 0 0 55 0 55 53 0 c55 0 77 12 77 41 0
32 -29 49 -80 49 l-49 0 2 48 2 47 100 5 c110 6 125 11 125 44 0 41 -17 46
-152 46 -115 0 -130 -2 -148 -20z"/>
<path d="M1707 724 c-15 -16 -5 -60 34 -143 l40 -88 -46 -104 c-48 -105 -49
-120 -13 -143 23 -14 44 6 82 82 l33 65 30 -66 c36 -75 59 -94 91 -71 12 8 22
20 22 26 0 5 -21 55 -47 109 l-46 99 48 101 c53 111 53 134 -1 134 -25 0 -33
-8 -59 -59 -17 -33 -35 -61 -41 -63 -5 -2 -23 25 -39 59 -24 50 -35 64 -55 66
-14 2 -29 0 -33 -4z"/>
<path d="M2044 709 c-17 -19 -17 -23 -3 -47 12 -22 23 -28 57 -30 l42 -3 0
-179 c0 -173 1 -179 22 -194 19 -13 25 -14 43 -2 19 13 20 25 23 195 l2 181
28 0 c58 0 91 49 56 84 -12 13 -39 16 -133 16 -106 0 -120 -2 -137 -21z"/>
<path d="M2453 709 c-52 -33 -65 -83 -61 -242 3 -118 6 -139 24 -164 46 -63
140 -79 196 -33 21 17 23 26 23 127 l0 108 -57 3 -58 3 0 -46 c0 -33 4 -45 15
-45 11 0 15 -11 15 -40 0 -36 -3 -40 -25 -40 -37 0 -45 27 -45 149 0 98 2 113
20 131 11 11 26 20 34 20 7 0 25 -9 39 -20 32 -26 53 -25 67 1 42 78 -99 144
-187 88z"/>
<path d="M2710 710 c-19 -19 -20 -33 -20 -212 0 -136 4 -200 13 -218 12 -25
14 -25 142 -25 l130 0 3 28 c6 48 -11 57 -110 57 l-89 0 3 53 3 52 50 5 50 5
0 40 0 40 -53 3 -53 3 3 47 3 47 85 3 c90 3 110 12 110 46 0 40 -18 46 -137
46 -100 0 -115 -2 -133 -20z"/>
<path d="M3110 710 c-19 -19 -20 -33 -20 -229 0 -205 1 -210 22 -225 19 -13
25 -14 43 -2 16 11 21 26 23 85 2 47 7 71 15 71 7 0 31 -36 55 -79 44 -83 61
-98 93 -81 26 15 24 37 -12 116 -30 68 -30 68 -10 84 27 20 41 62 40 118 -1
79 -18 114 -69 140 -59 30 -151 31 -180 2z m141 -90 c14 -8 19 -21 19 -48 0
-47 -14 -62 -57 -62 l-33 0 0 60 c0 58 1 60 26 60 14 0 34 -5 45 -10z"/>
<path d="M3593 718 c-17 -22 -123 -398 -123 -435 0 -12 9 -27 21 -33 26 -15
66 9 75 45 6 23 11 25 65 25 48 0 61 -3 65 -17 12 -39 22 -48 55 -48 30 0 34
3 37 30 3 32 -102 411 -120 432 -13 17 -63 17 -75 1z m71 -276 c8 -32 8 -32
-33 -32 -28 0 -39 4 -36 13 2 6 11 39 21 72 l17 60 12 -40 c7 -22 16 -55 19
-73z"/>
<path d="M3839 704 c-15 -40 11 -74 56 -74 l35 0 0 -178 c0 -161 2 -181 18
-195 23 -21 36 -21 56 -1 13 13 16 45 16 193 l0 178 36 6 c45 8 64 23 64 53 0
36 -29 44 -155 44 l-115 0 -11 -26z"/>
<path d="M4274 711 c-45 -27 -54 -65 -54 -225 0 -118 3 -147 18 -175 52 -96
193 -90 244 10 15 27 18 60 18 164 0 150 -16 202 -69 229 -42 22 -119 20 -157
-3z m114 -83 c8 -8 12 -53 12 -138 0 -85 -4 -130 -12 -138 -17 -17 -65 -15
-72 4 -10 27 -7 244 4 265 12 21 50 25 68 7z"/>
<path d="M4605 710 c-17 -19 -18 -34 -11 -227 4 -124 11 -212 18 -220 14 -17
52 -17 66 0 6 7 13 56 14 108 l3 94 70 -105 c50 -76 76 -106 93 -108 50 -7 52
4 52 239 l0 219 -26 12 c-49 23 -58 4 -64 -123 l-5 -114 -35 58 c-116 191
-136 210 -175 167z"/>
</g>
</svg>
